HIERARCHY
ROOT Hips
{
  OFFSET 57.8838 95.319 338.509
  CHANNELS 6 Xposition Yposition Zposition Zrotation Xrotation Yrotation
  JOINT LeftUpLeg
  {
    OFFSET 8.64259 1.95398 -2.38835
    CHANNELS 3 Zrotation Xrotation Yrotation
    JOINT LeftLeg
    {
      OFFSET 43.7702 0 0
      CHANNELS 3 Zrotation Xrotation Yrotation
      JOINT LeftFoot
      {
        OFFSET 40.6238 0 0
        CHANNELS 3 Zrotation Xrotation Yrotation
        JOINT LeftToeBase
        {
          OFFSET 12.7242 0 0
          CHANNELS 3 Zrotation Xrotation Yrotation
          End Site
          {
            OFFSET 0 0 0
          }
        }
      }
    }
  }
  JOINT RightUpLeg
  {
    OFFSET -8.2249 1.95398 -2.59336
    CHANNELS 3 Zrotation Xrotation Yrotation
    JOINT RightLeg
    {
      OFFSET 43.5653 0 0
      CHANNELS 3 Zrotation Xrotation Yrotation
      JOINT RightFoot
      {
        OFFSET 40.6238 0 0
        CHANNELS 3 Zrotation Xrotation Yrotation
        JOINT RightToeBase
        {
          OFFSET 12.7242 0 0
          CHANNELS 3 Zrotation Xrotation Yrotation
          End Site
          {
            OFFSET 0 0 0
          }
        }
      }
    }
  }
  JOINT Spine
  {
    OFFSET 0.165834 0.87714 6.61349
    CHANNELS 3 Zrotation Xrotation Yrotation
    JOINT Spine1
    {
      OFFSET 7.38963 1.71661e-005 0
      CHANNELS 3 Zrotation Xrotation Yrotation
      JOINT Spine2
      {
        OFFSET 11.9445 1.14441e-005 0
        CHANNELS 3 Zrotation Xrotation Yrotation
        JOINT Spine3
        {
          OFFSET 14.7254 4.19617e-005 0
          CHANNELS 3 Zrotation Xrotation Yrotation
          JOINT Spine4
          {
            OFFSET 10.9679 0 0
            CHANNELS 3 Zrotation Xrotation Yrotation
            JOINT RightShoulder
            {
              OFFSET 2.46616 -1.6653 3.69651
              CHANNELS 3 Zrotation Xrotation Yrotation
              JOINT RightArm
              {
                OFFSET 13.0012 0 0
                CHANNELS 3 Zrotation Xrotation Yrotation
                JOINT RightForeArm
                {
                  OFFSET 28.7848 1.62311e-005 0
                  CHANNELS 3 Zrotation Xrotation Yrotation
                  JOINT RightHand
                  {
                    OFFSET 26.5688 1.62095e-005 0
                    CHANNELS 3 Zrotation Xrotation Yrotation
                    End Site
                    {
                      OFFSET 0 0 0
                    }
                  }
                }
              }
            }
            JOINT LeftShoulder
            {
              OFFSET 2.38034 -1.29275 -3.7523
              CHANNELS 3 Zrotation Xrotation Yrotation
              JOINT LeftArm
              {
                OFFSET 16.3182 6.07031e-005 0
                CHANNELS 3 Zrotation Xrotation Yrotation
                JOINT LeftForeArm
                {
                  OFFSET 27.0901 0 0
                  CHANNELS 3 Zrotation Xrotation Yrotation
                  JOINT LeftHand
                  {
                    OFFSET 24.5451 1.51738e-005 0
                    CHANNELS 3 Zrotation Xrotation Yrotation
                    End Site
                    {
                      OFFSET 0 0 0
                    }
                  }
                }
              }
            }
            JOINT Neck
            {
              OFFSET 5.0226 -0.0266342 0
              CHANNELS 3 Zrotation Xrotation Yrotation
              JOINT Head
              {
                OFFSET 6.69364 2.86102e-005 0
                CHANNELS 3 Zrotation Xrotation Yrotation
                End Site
                {
                  OFFSET 0 0 0
                }
              }
            }
          }
        }
      }
    }
  }
}
MOTION
Frames:	10
Frame Time:	0.0416667
244.857 99.9196 -221.054 95.3887 48.3467 88.3504 -178.854 -1.53551 87.5856 -8.59534 13.6709 1.59539 58.4284 3.69707 10.2404 36.3648 3.11616 2.72693 175.077 3.42538 94.7157 -19.4 -1.39492 -1.23169 68.2633 0.160772 13.3645 26.8914 2.31595 2.34701 0.100732 7.60333 -91.5146 11.6675 -0.509401 -2.96224 -0.0066198 -0.639233 -2.93699 -22.5149 0.404004 -2.97842 -2.50224 0.403987 -2.97843 99.6658 -35.638 -86.7526 35.7153 -7.26719 -14.9035 -0.0250173 -14.3388 -7.31692 5.12384 -0.0381276 -5.29441 -81.271 -73.3355 93.1202 -30.5972 -21.3474 -28.44 0.265717 68.6958 -0.00261278 -1.9303 0.0056861 -10.1957 100.303 2.87235 17.2709 -113.959 -3.05958 -13.5393 
244.792 99.7896 -221.054 95.2963 48.2412 88.4984 -178.888 -1.01407 87.6004 -9.55236 13.2517 1.65506 59.0591 3.91282 10.0743 36.449 3.15175 2.6829 175.302 2.89544 94.7792 -18.8643 -4.04408 -1.14034 69.8081 -3.92008 11.8574 24.884 5.16157 0.286269 0.108442 7.60462 -91.5081 11.6687 -0.490976 -2.95051 -0.00539756 -0.620318 -2.92608 -22.5139 0.418053 -2.96171 -2.50126 0.418037 -2.96172 99.6683 -35.8404 -86.733 35.6791 -7.15712 -14.8175 -0.203497 -14.5892 -7.60546 5.34179 -0.0515383 -5.55204 -81.2775 -73.1414 93.1077 -30.4944 -21.2813 -28.4212 0.556418 69.271 -0.00268196 -1.93985 -0.00133258 -11.6262 100.308 2.69766 17.2954 -113.819 -3.33922 -13.5066 
244.83 99.8223 -221.087 95.3786 48.3449 88.427 -178.863 -1.15524 87.591 -9.37719 13.0669 1.65511 59.0476 3.9459 9.95351 36.2327 3.05293 2.31133 175.285 2.83011 94.7646 -18.8912 -3.92966 -1.16646 69.6272 -3.38065 12.0783 25.1835 4.76565 0.248188 0.0903408 7.60795 -91.4911 11.6426 -0.519106 -2.91751 -0.0314644 -0.646947 -2.89188 -22.5405 0.38132 -2.93868 -2.52786 0.381334 -2.93868 99.647 -35.8968 -86.7691 35.7651 -7.03561 -14.8851 -0.258524 -14.903 -7.50763 5.61321 -0.0537711 -5.57715 -81.0408 -72.8178 93.3736 -30.7416 -21.1678 -28.4753 0.537577 69.0727 -0.00265767 -2.1233 0.0119173 -11.5237 100.349 2.70486 17.2688 -113.839 -3.39826 -13.4412 
244.78 99.7747 -221.092 95.4019 48.1397 88.3652 -178.877 -1.13737 87.5349 -9.45297 13.2367 1.60129 59.0095 3.90302 10.2569 36.5748 3.20268 2.49648 175.29 2.81514 94.6494 -18.9495 -4.63886 -1.13137 69.5942 -3.7001 11.8157 25.5431 4.31465 0.0219015 0.114523 7.6055 -91.4662 11.648 -0.459383 -2.8744 -0.0259546 -0.585411 -2.85142 -22.5359 0.425336 -2.87962 -2.5232 0.425324 -2.87964 99.7175 -35.9775 -86.6309 35.5607 -7.58257 -14.9069 0.0871763 -13.9408 -7.33525 4.88773 -0.0571319 -5.52247 -81.1243 -72.1537 93.2462 -31.2425 -21.0364 -28.1251 0.549401 68.9268 -0.0026401 -1.83864 -0.0102023 -11.3772 100.141 2.6933 17.4364 -113.812 -3.31602 -13.6343 
244.733 99.7986 -221.148 95.1754 48.2243 88.5363 -178.972 -1.15332 87.4677 -9.13814 13.0063 1.64865 58.9974 3.99112 9.96335 36.3104 3.09285 2.7362 175.214 3.10061 94.6655 -19.1107 -3.9811 -1.11942 69.6651 -3.43286 11.919 25.2353 4.68499 0.343748 0.114352 7.56771 -91.4341 11.7243 -0.445646 -2.81183 0.050422 -0.568916 -2.78952 -22.4606 0.419677 -2.81582 -2.44791 0.419649 -2.81583 99.7209 -36.532 -86.5859 35.4245 -7.34053 -14.6703 -0.149341 -14.5925 -7.49144 5.44255 -0.0488525 -5.49929 -81.4307 -71.5974 92.8541 -31.3796 -21.0382 -27.8697 0.558048 68.8986 -0.00263673 -1.76973 -0.0129988 -11.3679 99.8118 2.66576 17.5702 -113.691 -3.10575 -13.877 
244.75 99.7978 -221.216 95.3254 48.1766 88.6329 -178.848 -1.05932 87.6381 -9.63081 13.0149 1.68839 59.2522 4.0167 10.0385 36.2463 3.0631 2.60644 175.191 2.79085 94.7405 -18.8211 -4.22871 -1.00966 69.4851 -3.39616 12.0825 25.3543 4.54357 0.20914 0.121837 7.56989 -91.4254 11.7203 -0.426662 -2.79647 0.0464305 -0.549262 -2.77502 -22.4648 0.433176 -2.79547 -2.4522 0.43317 -2.79548 99.73 -36.9011 -86.5434 35.3733 -7.2176 -14.5872 -0.23169 -14.6389 -7.6706 5.47367 -0.0387193 -5.29705 -81.4214 -71.1906 92.8461 -31.4493 -21.0733 -27.683 0.429216 68.6267 -0.00260473 -2.20022 0.010573 -10.7487 99.5328 2.66239 17.7395 -113.507 -2.90208 -14.1571 
244.708 99.7825 -221.197 95.4101 48.4186 88.577 -178.909 -0.825372 87.6329 -10.151 13.4227 1.74294 59.3092 4.05949 10.1714 36.288 3.0802 2.55054 175.129 2.83712 94.7175 -18.9391 -3.58081 -1.00479 69.6143 -3.4363 12.4742 25.2709 4.60259 0.628368 0.11413 7.56532 -91.3847 11.7301 -0.423057 -2.71585 0.0564061 -0.542119 -2.69463 -22.4562 0.412434 -2.71748 -2.44357 0.412408 -2.71749 99.8017 -37.4026 -86.378 35.0616 -7.62323 -14.658 0.101672 -13.8855 -7.41528 4.78053 -0.0513698 -5.60523 -81.8333 -70.3713 92.3061 -31.9377 -20.9102 -27.4293 0.479331 68.7646 -0.00262086 -2.01335 -0.000226383 -10.9118 99.243 2.58727 18.0716 -113.284 -2.54993 -14.7531 
244.338 99.7209 -221.061 96.0223 48.6671 87.878 -179.154 -0.46579 87.2355 -11.1663 13.5115 1.77376 59.3129 4.00075 10.4026 36.4533 3.15392 2.69723 174.752 3.03003 94.2016 -19.6266 -5.59195 -0.624139 68.7208 -3.72611 10.5791 26.3603 3.19232 0.354761 0.00902647 7.62435 -91.2734 11.6121 -0.57846 -2.47774 -0.0609846 -0.686953 -2.4499 -22.5772 0.192655 -2.53702 -2.56453 0.192665 -2.53702 99.5537 -38.2102 -86.7756 34.7579 -7.82388 -14.9766 0.152122 -13.68 -7.54205 4.58277 -0.0402145 -5.36898 -81.7215 -68.7455 92.3574 -33.1183 -20.7824 -27.1858 0.437091 67.9476 -0.00252833 -2.1721 -0.000491552 -9.80798 99.2013 1.71318 17.3852 -112.988 -3.02607 -14.3219 
243.882 99.7317 -220.933 96.7454 48.4368 87.7312 -178.891 -0.386219 87.5214 -11.9048 13.7881 1.75483 59.5469 3.93811 10.4821 36.2033 3.04308 2.51297 175.032 2.9205 94.5823 -19.6427 -4.85409 -0.830662 68.295 -3.31178 10.4862 26.5891 2.83193 0.981776 0.00529386 7.67622 -91.1773 11.5102 -0.539967 -2.29011 -0.162558 -0.640199 -2.26416 -22.6815 0.173059 -2.3465 -2.66888 0.173071 -2.34651 99.4966 -39.6811 -86.7753 34.3009 -7.46131 -14.4308 -0.566719 -14.2149 -8.83663 5.6333 -0.0206277 -4.94516 -81.6104 -66.8601 92.3962 -34.0442 -20.5003 -26.9303 0.468415 67.9824 -0.00253213 -2.20764 -0.000495457 -9.8336 98.8076 0.685844 17.0432 -112.848 -3.15426 -14.4836 
243.027 99.7338 -220.742 97.0838 48.3768 87.489 -179.103 -0.195821 87.1785 -11.8936 13.4713 1.73084 59.6192 3.91765 10.4342 35.2274 2.62248 2.32034 174.94 3.14717 94.2801 -19.7792 -4.0152 -0.940344 68.9588 -3.61481 11.929 25.274 4.59335 0.672512 -0.0443311 7.73985 -91.0515 11.3844 -0.578752 -2.03622 -0.288007 -0.667778 -2.00879 -22.8103 0.0598312 -2.11599 -2.7977 0.0598142 -2.116 99.4546 -40.7816 -86.7744 33.8673 -7.88674 -14.3551 -0.400967 -13.1586 -9.32254 3.87543 -0.0258169 -5.07272 -81.6516 -64.9867 92.2428 -34.7804 -19.96 -26.4696 0.350601 67.6936 -0.002501 -2.55528 0.000103117 -10.0072 98.7546 -0.21115 16.3771 -112.252 -3.14331 -14.4706 
